<?xml version="1.0" encoding="utf-8"?>
<!-- Generator: Adobe Illustrator 24.0.0, SVG Export Plug-In . SVG Version: 6.00 Build 0)  -->
<svg version="1.1" id="Capa_1" xmlns="http://www.w3.org/2000/svg" xmlns:xlink="http://www.w3.org/1999/xlink" x="0px" y="0px"
	 viewBox="0 0 86.6 60" style="enable-background:new 0 0 86.6 60;" xml:space="preserve">
<style type="text/css">
	.st0{fill:#242520;}
	.st1{fill:#FFFFFF;}
</style>
<path class="st0" d="M66.8,58.2H19.6c-2.2,0-4-1.8-4-4V7c0-2.2,1.8-4,4-4h47.3c2.2,0,4,1.8,4,4v47.3C70.8,56.4,69,58.2,66.8,58.2z"
	/>
<g>
	<path class="st0" d="M50.5,3.8c0.5,0,0.1,0.4,0.6,0.4s0.6-0.4,1.1-0.4c0.8,0,9.9,2.3,12.1,3.8c1.8,1.2,1.8,2.8,1.8,4.7
		c0,1.8-0.6,2.4-1,4.1c-0.7,3.1-3.8,10.7-3.8,11.3c0,1,1.9,0.5,1.9,2c0,2.8-2.5,0.9-2.5,3.2c0,0.5,0.4-0.2,0.4,0.3
		c0,1.3-2.7,11.7-3.2,14.3c0,0.3-1.6,1.4-1.9,1.4c-0.5,0-0.3-0.2-0.4-0.4C52.6,51.6,41.9,57,41,57c-1.8,0-0.9-0.3-2.6-1.3v-4.8
		c0-0.5,0.4,0.2,0.4-0.4s-0.4-0.1-0.4-0.6s0.4-0.8,0.4-1.3c0-1.6-0.9-2.1-2.4-2.6c-2.5-1-10-5.8-10.6-5.8c-0.5,0-3.2,1.2-3.7,1.2
		c-1.8,0-2.3-2-2.3-2.8c0-0.5,0.4-1.9,0.4-2.4c0-1.2-1.2-1.3-1.2-3.1c0-0.5,0.6-1.3,0.6-1.9s-0.4-0.7-0.4-1.2c0-1.1,1.5-2.2,1.8-3
		c0.7-1.5,0.7-3.3,1.4-5.1c1.9-0.6,1.6-0.6,1.6-1.7s2.5-2.1,2.9-2.1c2.3,0,12.6,2.1,12.9,2.3C40.2,19.2,44.4,3.8,50.5,3.8z"/>
	<path class="st1" d="M39.6,50.9c0.1,0.2,0.7,0.3,0.7,0.8s-0.2,2.7-0.2,4c-0.3,0-0.7-0.2-1-0.2v-4.1C39.4,51.4,39.5,51.1,39.6,50.9z
		"/>
	<path class="st1" d="M58,43.4v1.1c0,4.4-17.7,11-16.5,11.5v-2.7c0-0.5,0.4,0.4,0.4-0.2c0-0.5-0.4,0.1-0.4-0.4
		C41.5,51,54,45,58,43.4z"/>
	<path class="st1" d="M39.4,38.4c-0.8,8.1,0.1,5.9-0.9,8.5V42c0-0.5,0.4,0.3,0.4-0.3c0-0.5-0.4,0.2-0.4-0.3
		C38.5,41.4,38.8,39.3,39.4,38.4z"/>
	<path class="st1" d="M45.2,37.9v2.3V37.9z"/>
	<path class="st1" d="M41.9,37.8c0,0,0.3,0,0.3,0.5c0,0.8-1.2,3.2-1.2,4.3c0,0.5,0.4-0.1,0.4,0.4c0,0.5-0.4,0.4-0.4,0.8
		c-0.2,4.3-0.2,5.4-0.3,6.3c-1.3-0.8-1.2-0.9-1.2-1.6c0-0.5,0.2-1.1,0.2-5.5c0-0.2,0.4-0.1,0.4-0.6v-4.2
		C40.8,38.2,41.2,38,41.9,37.8z"/>
	<path class="st1" d="M20.9,36.4c1,0,1.2,0.8,1.2,1.2c0,0.5-0.4,1.5-0.5,2.5c-1-0.6-1.2-1.7-1.2-1.7C20.5,37.8,20.9,37.1,20.9,36.4z
		"/>
	<path class="st1" d="M53.9,36c1.5,0,1.7,0.9,1.7,2.2c0,0.5-1,3.9-1.3,6.2c-2,0.9-4.1,2.2-6,3.2C48.4,42.8,47.7,36,53.9,36z"/>
	<path class="st1" d="M55.7,32.9c0.8,0,2,0.7,2,1.5c0,2.5-1.3,7.7-2.4,9.4v-1.6c0-1.1,1-4.3,1-5.1c0-0.8-0.4-2.6-1.8-2.6
		c-6.6,0-7.3,5.7-7.3,10.5c0,0.7-0.8,3-2,3.7v-3.4C45.1,37.7,46.6,32.9,55.7,32.9z"/>
	<path class="st1" d="M19.7,32.7c5.5,3.9,10.8,7.7,16.1,11.1c0,0,0.1-0.1,0.2-0.4c0.5,0.2,1.1,0.4,1.8,0.4c0.1,0.1,0,0.8,0.5,1.4
		c-0.3,0.1-0.4,0.2-0.5,0.5c-6.2-2.5-12.9-6.4-18.1-11.8L19.7,32.7L19.7,32.7z"/>
	<path class="st1" d="M57.5,31.7h3.1v1.1c0,1.5-2.5,9-3.2,10c-0.2-1.2,1.4-7.7,1.4-8.5C58.7,33,57.7,33.6,57.5,31.7z"/>
	<path class="st1" d="M56.6,29.6c0.5,0,1.5,0.2,5.8,0v1.2c-1.5,0-3.1-0.2-4.2,0.6c-0.1-0.3-0.1-0.4-0.6-0.4c-0.5,0-0.6,0.4-1,0.4
		c-6.8,0-7.4,0.2-8,0.2c-0.5,0-1.8-0.3-2.3-0.8c0.7-0.1,1.5,0.1,2,0.1C48.8,31,55,29.6,56.6,29.6z"/>
	<path class="st1" d="M49.8,27.7c0.5,0,0.7,0,6.1,0.2c1.5,0,3.8,0.4,5.9,0.7l-4.7,0.3c0,0,0.4-0.4-0.2-0.4c-0.5,0,0.2,0.4-0.3,0.4
		H52c-1.3,0-2.5,1.2-3.7,1.2c-0.8,0-1.7,0.2-2.6-1.6C47.2,28.3,49.3,27.7,49.8,27.7z"/>
	<path class="st1" d="M24.3,26.7h7.3c3.9,0,9.4,2.5,12.5,3.6c-1,1.5-3.3,3.7-4,5.4c-2,0.8-5.9,0.8-5.9,3.9c0,0.5,0.4,1.6,1,2.5
		c-4.3-1.8-13.6-8.1-13.6-8.9c0-0.5,0.8-2.1,0.8-2.6s-0.2-1.9-0.6-3.3C22.3,27.2,24,27.4,24.3,26.7z"/>
	<path class="st1" d="M29,21.7h3.3c0.5,0,0.2,0.4,0.8,0.4s0-0.4,0.5-0.4c0.2,0,3.6,0.7,5.4,1.1c0.1,1.2-0.1,3.6-0.7,4.5
		c-1.6-0.3-2.9-1.2-4.4-1.2c-0.5,0,0.1,0.4-0.4,0.4c-0.5,0-1.7-0.4-3.3-0.6c-3.3,0.2-3.6,0.2-3.7,0c-0.8,0.2-1.8,0.2-3.5,0.6
		C23,23.4,26.7,22.5,29,21.7z"/>
	<path class="st1" d="M31.1,20.3c0.5,0,5.4,0.6,8.3,0.9c0,0.3,0,0.7,0,1c-3-0.4-7.5-1-8-1c-0.5,0-1.8,0.4-2.1,0.4
		c-0.5,0,0.2-0.4-0.3-0.4c0,0-1.5,0.6-2,0.6c-0.5,0-1-0.2-1.2-0.5C27.6,20.9,30.6,20.3,31.1,20.3z"/>
	<path class="st1" d="M28.8,19.1h-1.1h3.1c-1.2,0.1-3.4,1.1-4.1,1.1c-0.5,0-0.6-0.4-1.1-0.5C26.6,18,28.8,19.4,28.8,19.1z"/>
	<path class="st1" d="M48.9,5.6h5c2.9,0,8.6,1.9,8.6,5.2c0,0.5-1.2,5.1-1.9,7.5c0,0-0.2,0.1,0.3,0.1c0.4,0,2.2-5.4,2.2-5.4V8.8
		c-0.6-0.8-1.4-1.6-2.3-2.1c2.3-0.1,4.7,2.9,4.7,5c0,0.5-0.4,0.4-0.4,0.9s0.4-0.2,0.4,0.3c0,2.3-4.2,13.2-4.4,14.7
		c-0.3,0-0.5,0.2-3,0c1-3.2,2-6,3.1-8.5C61,19,61.2,19,60.6,19c-0.8,0-2.8,6.4-3.2,8.6c-1.9-0.4-5.6-0.6-6.2-0.6
		c-2.3,0-6.6,0.4-7.3,2.7c-1.5-0.8-3-1.6-4.5-1.9v-2C39.5,21.1,46.4,6.5,48.9,5.6z"/>
</g>
</svg>
